<?xml version="1.0" encoding="utf-8"?>
<!-- Generator: Adobe Illustrator 24.1.1, SVG Export Plug-In . SVG Version: 6.00 Build 0)  -->
<svg version="1.1" id="Layer_1" xmlns="http://www.w3.org/2000/svg" xmlns:xlink="http://www.w3.org/1999/xlink" x="0px" y="0px"
	 viewBox="0 0 500 239.01" style="enable-background:new 0 0 500 239.01;" xml:space="preserve">
<style type="text/css">
	.st0{fill:#1D1D1B;}
	.st1{fill-rule:evenodd;clip-rule:evenodd;fill:#F2B811;}
	.st2{fill-rule:evenodd;clip-rule:evenodd;fill:#1D1D1B;}
	.st3{fill-rule:evenodd;clip-rule:evenodd;fill:#E3151D;}
</style>
<g>
	<g>
		
			<ellipse transform="matrix(0.5149 -0.8572 0.8572 0.5149 163.1158 375.0348)" class="st0" cx="412.94" cy="43.39" rx="5.67" ry="4.14"/>
		<ellipse transform="matrix(0.33 -0.944 0.944 0.33 234.1645 405.8991)" class="st0" cx="403.01" cy="38" rx="5.6" ry="4.19"/>
		
			<ellipse transform="matrix(0.9421 -0.3354 0.3354 0.9421 9.9034 133.4382)" class="st0" cx="391.29" cy="38.05" rx="4.19" ry="5.61"/>
		
			<ellipse transform="matrix(0.8572 -0.5149 0.5149 0.8572 32.202 202.9228)" class="st0" cx="382.06" cy="43.39" rx="4.14" ry="5.67"/>
		<path class="st0" d="M403.91,48.01c-2.1-3.2-5.06-3.49-6.1-3.49c-0.25,0-0.5,0-0.75,0c-1.04,0-4,0.29-6.1,3.49
			c-4.96,7.57-5.63,8.42-6.24,9.65c-0.54,1.1-0.97,2.92-0.34,4.36c0.76,1.73,3.4,2.47,3.87,2.52c0.66,0.08,1.85-0.25,4.77-1.17
			c3.48-1.09,3.99-1.47,4.74-1.39c0.48,0.05,1.08,0.19,3.8,0.95c3.93,1.09,4.19,1.25,4.87,1.18c1.8-0.17,3.89-1.32,4.41-3.06
			c0.25-0.85,0.35-1.8-0.67-3.39C408.9,55.71,405.91,51.06,403.91,48.01z"/>
		<ellipse class="st1" cx="397.49" cy="122.99" rx="92.51" ry="19.82"/>
		<path class="st2" d="M397.49,99.76c25.77,0,49.15,2.25,66.12,5.88c18.41,3.94,29.8,10.04,29.8,17.35c0,7.31-11.39,13.4-29.8,17.35
			c-16.97,3.63-40.36,5.88-66.12,5.88c-25.77,0-49.15-2.25-66.12-5.88c-18.41-3.94-29.8-10.04-29.8-17.35
			c0-7.31,11.39-13.4,29.8-17.35C348.34,102.01,371.73,99.76,397.49,99.76L397.49,99.76z M462.2,112.31
			c-16.51-3.54-39.39-5.72-64.71-5.72c-25.32,0-48.2,2.19-64.71,5.72c-15.07,3.23-24.39,7.04-24.39,10.68
			c0,3.63,9.32,7.45,24.39,10.68c16.51,3.53,39.38,5.72,64.71,5.72c25.32,0,48.2-2.19,64.71-5.72c15.07-3.23,24.39-7.04,24.39-10.68
			C486.59,119.35,477.27,115.54,462.2,112.31z"/>
		<path class="st3" d="M397.49,4.26c25.55,0,46.26,20.71,46.26,46.26l0,42.17c0,2.42-1.11,4.57-2.85,5.99
			c-0.37,0.3-0.78,0.57-1.2,0.8l-37.57,25.05c-0.23,0.17-0.47,0.33-0.72,0.48c-1.15,0.67-2.48,1.06-3.91,1.06
			c-1.43,0-2.76-0.39-3.91-1.06c-0.25-0.15-0.49-0.31-0.72-0.48l-37.58-25.05c-0.43-0.23-0.83-0.5-1.2-0.8
			c-1.74-1.41-2.85-3.57-2.85-5.99V50.52C351.24,24.97,371.94,4.26,397.49,4.26L397.49,4.26z M397.49,18.65
			c-17.17,0-31.09,13.92-31.09,31.09c0,17.17,13.92,31.09,31.09,31.09c17.17,0,31.09-13.92,31.09-31.09
			C428.58,32.57,414.66,18.65,397.49,18.65z"/>
		<g>
			<path class="st2" d="M397.49,0.85c13.72,0,26.14,5.56,35.12,14.55c8.99,8.99,14.55,21.41,14.55,35.12h-0.01l0,42.17h0.01
				c0,1.7-0.39,3.33-1.08,4.78c-0.71,1.49-1.76,2.81-3.04,3.85c-0.29,0.23-0.57,0.45-0.85,0.63l-0.14,0.09
				c-0.2,0.13-0.4,0.25-0.59,0.36L404,127.37l-0.04,0.03l-0.3,0.22c-0.08,0.05-0.16,0.1-0.25,0.15l-0.28,0.17l-0.22,0.12
				c-0.77,0.43-1.61,0.78-2.5,1.02l-0.02,0l0,0.01c-0.93,0.25-1.91,0.39-2.91,0.39c-1,0-1.97-0.14-2.91-0.39
				c-0.1-0.03-0.21-0.06-0.31-0.1c-0.86-0.26-1.67-0.61-2.41-1.05l-0.01-0.01l0,0.01c-0.13-0.07-0.3-0.18-0.52-0.33l-0.01,0.01
				l-0.33-0.25l0,0l-37.47-24.98c-0.23-0.13-0.48-0.29-0.73-0.45l0,0c-0.28-0.18-0.56-0.4-0.85-0.63c-1.29-1.04-2.33-2.36-3.04-3.85
				c-0.69-1.45-1.08-3.07-1.08-4.78V50.52c0-13.72,5.56-26.14,14.55-35.12C371.36,6.41,383.78,0.85,397.49,0.85L397.49,0.85z
				 M427.79,20.22c-7.75-7.75-18.46-12.55-30.29-12.55c-11.83,0-22.54,4.8-30.29,12.55c-7.75,7.75-12.55,18.46-12.55,30.29v42.17
				c0,0.66,0.15,1.29,0.41,1.84c0.28,0.59,0.69,1.11,1.17,1.5c0.09,0.07,0.19,0.15,0.32,0.23l0,0l0.02,0.01
				c0.09,0.06,0.2,0.13,0.34,0.2c0.09,0.05,0.18,0.1,0.27,0.16l37.58,25.05l-0.01,0.01l0.18,0.13c0.11,0.08-0.01-0.02,0.19,0.11
				l-0.01,0.01l0.01,0l0.21,0.12l0,0.01c0.27,0.16,0.56,0.29,0.86,0.38l0.17,0.04c0.36,0.1,0.74,0.15,1.15,0.15
				c0.4,0,0.79-0.05,1.15-0.15l0,0.01c0.31-0.08,0.61-0.21,0.89-0.36l0.13-0.08l0.08-0.05l0.13-0.09c0.09-0.06,0.12-0.07,0.13-0.08
				l0.24-0.17l37.53-25.02c0.1-0.07,0.21-0.13,0.32-0.19c0.1-0.05,0.18-0.1,0.25-0.15l0.1-0.07c0.13-0.08,0.23-0.16,0.32-0.23
				c0.49-0.4,0.89-0.91,1.17-1.5c0.26-0.55,0.41-1.18,0.41-1.84h0.01l0-42.17h-0.01C440.33,38.69,435.54,27.98,427.79,20.22
				L427.79,20.22z M397.49,15.24c-9.53,0-18.16,3.86-24.4,10.11c-6.24,6.24-10.11,14.87-10.11,24.4c0,9.53,3.86,18.16,10.11,24.4
				c6.24,6.24,14.87,10.11,24.4,10.11c9.5,0,18.11-3.85,24.36-10.08l0.02-0.02l0.01-0.01l0.01-0.01
				C428.14,67.88,432,59.26,432,49.75c0-9.53-3.86-18.16-10.11-24.4C415.65,19.1,407.02,15.24,397.49,15.24L397.49,15.24z
				 M417.06,30.17c-5.01-5.01-11.93-8.11-19.57-8.11c-7.64,0-14.56,3.1-19.57,8.11c-5.01,5.01-8.11,11.93-8.11,19.57
				c0,7.64,3.1,14.56,8.11,19.57c5.01,5.01,11.93,8.11,19.57,8.11c7.65,0,14.57-3.09,19.57-8.09l0.01-0.01
				c5-5,8.09-11.92,8.09-19.57C425.17,42.1,422.07,35.18,417.06,30.17L417.06,30.17z"/>
		</g>
	</g>
	<path class="st0" d="M-0.14,118.93l0.11-21.68v-22c0.07-0.03,0.4-0.05,1-0.05h1.95c0.74,0,1.3-0.03,1.69-0.11l6.54-0.26
		c1.69-0.07,2.99-0.11,3.9-0.11h8.39l15.51-0.37c2.11,0,4.43,0.09,6.96,0.26h0.37c1.2-0.07,1.95-0.11,2.27-0.11
		c7.03,0,13.05,2.23,18.04,6.7c2.43,2.15,4.34,4.91,5.75,8.28c1.41,3.37,2.11,6.87,2.11,10.47c0,3.61-0.37,6.67-1.11,9.21
		c-0.74,2.53-1.69,4.68-2.85,6.44c-4.64,7.1-13.63,11.25-26.96,12.45l-11.39,0.47c-0.35,8.44-0.53,15-0.53,19.68l0.05,1.64v4.27
		c-0.14,0.49-0.4,0.82-0.79,1l-30.12,0.48c-0.6-1.69-0.9-4.4-0.9-8.12V118.93z M46.02,96.3c-1.41-3.69-5.13-5.66-11.18-5.91
		c-0.88-0.04-2.09-0.05-3.64-0.05c-0.42,0-0.69,5.19-0.79,15.56l-0.11,3.96l0.16,3.17c4.33-0.07,8.13-0.98,11.42-2.74
		c3.29-1.76,4.93-4.96,4.93-9.6C46.81,98.71,46.55,97.25,46.02,96.3z"/>
	<path class="st0" d="M102.04,118.77l0.53,0.05h1.27c1.2,0,2.13-0.09,2.8-0.26l2.85-0.37c4.85-0.35,7.77-1.65,8.76-3.9
		c0.49-1.13,0.74-2.55,0.74-4.27c-0.21-0.35-0.32-1.02-0.32-2.01c0-0.98-0.5-2.02-1.5-3.11c-1-1.09-2.19-1.64-3.56-1.64h-0.26
		c-3.38,0-5.06,2.87-5.06,8.6c-0.18,0.28-0.47,0.39-0.87,0.32c-0.41-0.07-1.38-0.11-2.93-0.11H77.25c0.18-2.43,0.81-5.05,1.9-7.86
		c2.07-5.42,6.09-9.31,12.05-11.68c5.96-2.37,11.88-3.67,17.75-3.88l3.17-0.16l1.69-0.16c0.21,0,0.42,0.05,0.63,0.16h0.69l2.37-0.11
		c0.49,0,1.6,0.13,3.32,0.37l1.53,0.21c0.25,0.04,0.63,0.05,1.16,0.05c0.53,0,1.64,0.12,3.32,0.34c1.69,0.23,3.8,0.83,6.33,1.82
		c8.58,3.37,13.78,9.85,15.61,19.41c0.77,4.05,1.16,8.53,1.16,13.45c0.25,0.81,0.37,1.55,0.37,2.22l-0.26,3.64v6.12
		c0.04,0.07,0.05,0.37,0.05,0.89l-0.11,3.59v0.47c0.11,0.18,0.16,0.42,0.16,0.74l-0.05,0.48v1.11c0,3.34,0.51,6.51,1.53,9.5
		l0.53,1.16h-23.84l-1.9-0.05c-1.41,0-2.48,0.02-3.22,0.05c-1.13-2.11-2.2-4.99-3.22-8.65c-0.46,0.95-1.24,2.03-2.35,3.24
		c-1.11,1.21-1.93,1.82-2.45,1.82c-5.2,2.53-9.16,3.98-11.87,4.33c-4.01,0.67-6.31,1-6.91,1c-8.41,0-14.75-2.92-19.04-8.76
		c-2.15-2.99-3.22-6.45-3.22-10.39c0-8.55,3.97-13.79,11.92-15.72c2.04-0.49,5.98-1,11.82-1.53l1.74-0.16L102.04,118.77z
		 M119.34,131.01l0.05-1.69c0-1.76-0.14-3.45-0.42-5.06c-0.77,0.42-1.9,0.89-3.38,1.42c-1.48,0.53-2.66,0.97-3.53,1.34
		c-0.88,0.37-1.68,1.02-2.4,1.95c-0.72,0.93-1.08,2.21-1.08,3.82c0,1.62,0.52,3.1,1.56,4.43c1.04,1.34,2.17,2,3.4,2
		c2.64,0,4.52-0.95,5.64-2.85l0.11-0.53l0.05-3.27V131.01z"/>
	<path class="st0" d="M197,127.53l-0.05,0.79c0,1.23,0.04,2.14,0.13,2.72c0.09,0.58,0.45,1.27,1.08,2.06
		c0.63,0.79,2.69,1.19,6.17,1.19l1.42,0.05c0.53,0,1-0.05,1.42-0.16l0.05,19.68h-28.85l-1.79,0.11H176c-1.3,0-2.73-0.42-4.27-1.27
		c-1.55-0.84-2.7-1.59-3.45-2.24c-0.76-0.65-1.4-1.48-1.93-2.51c-0.98-1.9-1.58-3.77-1.77-5.62c-0.19-1.85-0.29-4.14-0.29-6.89
		v-29.22h-6.22l-0.05-7.38v-7.54h6.07V73.83h16.3l16.3-0.05l0.05,17.41h8.81l0.05,7.54v7.49H197V127.53z"/>
	<path class="st0" d="M240.09,118.77l0.53,0.05h1.27c1.2,0,2.13-0.09,2.79-0.26l2.85-0.37c4.85-0.35,7.77-1.65,8.76-3.9
		c0.49-1.13,0.74-2.55,0.74-4.27c-0.21-0.35-0.32-1.02-0.32-2.01c0-0.98-0.5-2.02-1.5-3.11c-1-1.09-2.19-1.64-3.56-1.64h-0.26
		c-3.38,0-5.07,2.87-5.07,8.6c-0.18,0.28-0.47,0.39-0.87,0.32c-0.4-0.07-1.38-0.11-2.93-0.11H215.3c0.18-2.43,0.81-5.05,1.9-7.86
		c2.08-5.42,6.09-9.31,12.05-11.68c5.96-2.37,11.88-3.67,17.75-3.88l3.17-0.16l1.69-0.16c0.21,0,0.42,0.05,0.63,0.16h0.69l2.37-0.11
		c0.49,0,1.6,0.13,3.32,0.37l1.53,0.21c0.25,0.04,0.63,0.05,1.16,0.05c0.53,0,1.64,0.12,3.32,0.34c1.69,0.23,3.8,0.83,6.33,1.82
		c8.58,3.37,13.78,9.85,15.61,19.41c0.77,4.05,1.16,8.53,1.16,13.45c0.25,0.81,0.37,1.55,0.37,2.22l-0.26,3.64v6.12
		c0.04,0.07,0.05,0.37,0.05,0.89l-0.11,3.59v0.47c0.11,0.18,0.16,0.42,0.16,0.74l-0.05,0.48v1.11c0,3.34,0.51,6.51,1.53,9.5
		l0.53,1.16h-23.84l-1.9-0.05c-1.41,0-2.48,0.02-3.22,0.05c-1.13-2.11-2.2-4.99-3.22-8.65c-0.46,0.95-1.24,2.03-2.35,3.24
		c-1.11,1.21-1.92,1.82-2.45,1.82c-5.21,2.53-9.16,3.98-11.87,4.33c-4.01,0.67-6.31,1-6.91,1c-8.41,0-14.75-2.92-19.04-8.76
		c-2.15-2.99-3.22-6.45-3.22-10.39c0-8.55,3.97-13.79,11.92-15.72c2.04-0.49,5.98-1,11.81-1.53l1.74-0.16L240.09,118.77z
		 M257.4,131.01l0.05-1.69c0-1.76-0.14-3.45-0.42-5.06c-0.77,0.42-1.9,0.89-3.38,1.42c-1.48,0.53-2.66,0.97-3.54,1.34
		c-0.88,0.37-1.68,1.02-2.4,1.95c-0.72,0.93-1.08,2.21-1.08,3.82c0,1.62,0.52,3.1,1.56,4.43c1.04,1.34,2.17,2,3.4,2
		c2.64,0,4.52-0.95,5.64-2.85l0.11-0.53l0.05-3.27V131.01z"/>
	<path class="st0" d="M106.28,202.51l-2.04-0.06h-5.34v-6l-0.02-6.04l31.45-0.02v10.27c-0.46,0.28-0.88,0.49-1.27,0.62l-1.41,0.81
		c1.14,1.29,1.97,2.5,2.5,3.64c0.52,1.13,0.79,2.53,0.79,4.18c0,2.67-1.06,4.92-3.18,6.75c-2.12,1.83-4.84,2.74-8.16,2.74
		c-2.19,0-4.26-0.25-6.2-0.74c-1.88-0.54-3.64-1.4-5.27-2.6c-1.63-1.19-2.55-2.75-2.77-4.67l0.02-0.3l-0.12-1.71
		c0-1.64,0.72-3.5,2.16-5.58l0.26-0.42l-0.02,0.02c0.2-0.31,0.35-0.5,0.44-0.58l-0.28-0.62c-0.69,0.23-1.16,0.34-1.41,0.34H106.28z
		 M118.67,206.83l0.71,0.02h0.56c0.74,0,1.5-0.14,2.28-0.42l-0.02,0.02c0.4-0.09,0.92-0.36,1.54-0.81c0.62-0.44,0.94-0.89,0.94-1.35
		c0-0.17-0.03-0.32-0.1-0.42c-0.6-1.4-2.48-2.1-5.64-2.1c-2.19,0-3.94,0.36-5.24,1.09c-0.81,0.44-1.21,0.93-1.21,1.46
		c0,0.53,0.4,1,1.21,1.4C115.16,206.46,116.82,206.83,118.67,206.83z"/>
	<path class="st0" d="M105.52,178.14c-0.17-0.6-0.26-1.25-0.26-1.93c0-0.68,0.03-1.34,0.08-1.95l0.08-0.85
		c0.12-1.33,0.28-2.35,0.46-3.06h-0.02l0.18-0.42c0.87-2.82,2.2-5.02,3.99-6.59h-0.02c0.43-0.36,1.08-0.81,1.94-1.34
		c0.87-0.53,1.47-0.8,1.8-0.8l0.54-0.16l0.58-0.1c0.9-0.25,1.65-0.38,2.26-0.38c0.6,0,1.07-0.01,1.39-0.02v16.6h0.66
		c0.31-0.08,0.63-0.12,0.97-0.12c0.34,0,0.6,0,0.8-0.01c0.19-0.01,0.38-0.02,0.56-0.05c0.18-0.03,0.33-0.04,0.44-0.05
		c0.11-0.01,0.25-0.04,0.4-0.09c0.15-0.05,0.26-0.08,0.31-0.09c0.05-0.01,0.16-0.05,0.32-0.12c0.16-0.07,0.31-0.13,0.45-0.18
		c0.14-0.05,0.28-0.14,0.41-0.27h-0.02l0.42-0.22c0.28-0.25,0.48-0.6,0.6-1.05c-0.16-0.74-0.54-1.24-1.15-1.5
		c-0.6-0.26-1.36-0.48-2.26-0.65c-0.13-0.48-0.2-1.17-0.2-2.05l0.06-2.58v-7.43c1.64,0.16,3.14,0.64,4.51,1.45v-0.02
		c1.1,0.7,2.05,1.79,2.84,3.26c1.46,4.18,2.2,6.86,2.2,8.04c0,0.21-0.01,0.39-0.04,0.52v0.46l0.02,0.18v0.18
		c0,0.11-0.01,0.24-0.04,0.4c0.08,0.13,0.12,0.3,0.12,0.48l-0.2,1.75c0.04,0.09,0.06,0.28,0.06,0.57c0,0.29-0.18,1.04-0.54,2.27
		h0.02l-0.14,0.48l-0.16,0.48c-0.59,2.01-1.63,3.74-3.11,5.18c-1.48,1.44-3.21,2.36-5.19,2.76c-0.24,0.04-0.61,0.11-1.1,0.22
		c-0.49,0.11-0.82,0.16-1,0.16h-0.97c-0.23,0-0.4-0.01-0.52-0.02h-0.3c-2.85,0-5.31-0.85-7.38-2.54c-2.07-1.69-3.54-3.96-4.38-6.81
		l-0.14-0.48c-0.12-0.71-0.25-1.22-0.38-1.53L105.52,178.14z M115.87,172.12l-0.26-0.42c-1.45,0.23-2.38,0.44-2.79,0.64
		c-0.41,0.2-0.76,0.4-1.06,0.58c-0.56,0.35-0.85,0.81-0.85,1.38s0.28,1.06,0.85,1.46c0.99,0.71,2.39,1.16,4.19,1.35
		c-0.05-0.86-0.08-1.65-0.08-2.38V172.12z"/>
	<path class="st0" d="M137.31,159.14l13.61-0.05h13.77c0.67,1.37,1.27,2.53,1.79,3.48l2,3.69c3.73-3.41,7.16-5.83,10.31-7.25
		c3.15-1.42,6.59-2.14,10.31-2.14c3.73,0,7.07,0.69,10.02,2.06c5.2,2.43,9.06,6.54,11.58,12.35c2.52,5.8,3.77,11.99,3.77,18.57
		c0,0.84-0.07,1.62-0.21,2.32c-0.56,6.12-1.63,11.19-3.19,15.22c-1.57,4.03-4.32,7.85-8.26,11.47v-0.05
		c-3.52,3.03-6.86,4.54-10.02,4.54c-0.91,0.42-1.84,0.63-2.77,0.63c-0.93,0-2.23-0.12-3.9-0.34c-1.67-0.23-2.77-0.48-3.3-0.76
		c-4.89-1.05-8.85-3.13-11.87-6.22l-2,0.05c0.32,2,0.47,3.73,0.47,5.17l-0.05,0.95v16.14l-16.04,0.05h-15.98l-0.05-39.93V159.14z
		 M181.46,195.7l0.26-3.32c-0.03-0.03-0.05-0.11-0.05-0.21c0-0.11,0.02-0.19,0.05-0.26V191c0-1.72-0.07-3.15-0.21-4.27l-0.32-2.22
		c-0.07-0.35-0.26-1.42-0.58-3.22c-0.84-4.54-2.62-6.8-5.33-6.8c-4.36,0-6.54,5.73-6.54,17.2c0,6.29,0.97,10.89,2.9,13.77
		c0.91,1.34,2.04,2.16,3.38,2.48C178.68,207.62,180.83,203.54,181.46,195.7z"/>
	<path class="st0" d="M246.56,157.56c1.58-0.46,3.27-0.69,5.07-0.69c1.79,0,3.5,0.07,5.12,0.21l2.22,0.21
		c3.48,0.32,6.15,0.72,8.02,1.21v-0.05l1.11,0.47c7.38,2.29,13.13,5.77,17.25,10.45v-0.05c0.95,1.13,2.12,2.82,3.51,5.09
		c1.39,2.27,2.09,3.84,2.09,4.72l0.42,1.42l0.26,1.53c0.67,2.36,1,4.33,1,5.91c0,1.58,0.02,2.8,0.05,3.64H249.2v1.74
		c0.21,0.81,0.32,1.65,0.32,2.53c0,0.88,0.01,1.58,0.03,2.09s0.06,1,0.13,1.48c0.07,0.47,0.11,0.86,0.13,1.16
		c0.02,0.3,0.1,0.65,0.24,1.06c0.14,0.4,0.22,0.68,0.24,0.82c0.02,0.14,0.12,0.42,0.32,0.84c0.19,0.42,0.35,0.82,0.47,1.19
		c0.12,0.37,0.36,0.73,0.71,1.08v-0.05l0.58,1.11c0.67,0.74,1.58,1.27,2.74,1.58c1.93-0.42,3.24-1.42,3.93-3.01
		c0.69-1.58,1.26-3.55,1.71-5.91c1.27-0.35,3.06-0.53,5.38-0.53l6.75,0.16h19.47c-0.42,4.29-1.69,8.23-3.8,11.82h0.05
		c-1.83,2.88-4.68,5.36-8.55,7.44c-10.94,3.83-17.95,5.75-21.05,5.75c-0.56,0-1.02-0.04-1.37-0.11h-1.21l-0.47,0.05h-0.47
		c-0.28,0-0.63-0.04-1.06-0.11c-0.35,0.21-0.77,0.32-1.27,0.32l-4.59-0.53c-0.25,0.11-0.75,0.16-1.5,0.16
		c-0.76,0-2.73-0.47-5.93-1.42v0.05l-1.27-0.37l-1.27-0.42c-5.27-1.55-9.79-4.26-13.56-8.15c-3.76-3.88-6.17-8.41-7.23-13.58
		c-0.1-0.63-0.3-1.59-0.58-2.87c-0.28-1.28-0.42-2.15-0.42-2.61v-2.53c0-0.6,0.02-1.06,0.05-1.37v-0.79c0-7.45,2.22-13.9,6.65-19.33
		c4.43-5.43,10.37-9.26,17.83-11.47l1.27-0.37c1.86-0.32,3.2-0.65,4.01-1L246.56,157.56z M262.33,184.67l1.11-0.69
		c-0.6-3.8-1.16-6.23-1.69-7.31c-0.53-1.07-1.04-2-1.53-2.77c-0.92-1.48-2.12-2.22-3.61-2.22s-2.77,0.74-3.82,2.22
		c-1.86,2.6-3.04,6.26-3.53,10.97c2.25-0.14,4.32-0.21,6.22-0.21H262.33z"/>
	<path class="st0" d="M297.52,159.09l14.03-0.05h14.03l1.16,7.07c0.81,4.96,1.28,7.77,1.42,8.44h1.85c1.3-6.02,3.8-10.29,7.49-12.82
		l2.11-1.21c0.1-0.21,0.74-0.6,1.9-1.16l-0.21,0.05l1.21-0.48c3.45-1.37,6.42-2.07,8.92-2.11c0.53,0,0.88,0.04,1.05,0.11h1.95v29.44
		c-0.74-0.18-1.9-0.26-3.48-0.26s-3.21,0.23-4.88,0.69c-1.67,0.46-3.08,1.05-4.22,1.77c-1.14,0.72-2.14,1.64-2.98,2.77
		c-2.6,3.48-3.91,8.7-3.91,15.67l0.11,5.54v9.71l-18.78,0.05h-18.73l-0.05-31.49V159.09z"/>
	<path class="st0" d="M360.08,159.09l14.03-0.05h14.03l1.16,7.07c0.81,4.96,1.28,7.77,1.42,8.44h1.85c1.3-6.02,3.8-10.29,7.49-12.82
		l2.11-1.21c0.1-0.21,0.74-0.6,1.9-1.16l-0.21,0.05l1.21-0.48c3.45-1.37,6.42-2.07,8.92-2.11c0.53,0,0.88,0.04,1.05,0.11H417v29.44
		c-0.74-0.18-1.9-0.26-3.48-0.26s-3.21,0.23-4.88,0.69c-1.67,0.46-3.08,1.05-4.22,1.77c-1.14,0.72-2.14,1.64-2.98,2.77
		c-2.6,3.48-3.91,8.7-3.91,15.67l0.11,5.54v9.71l-18.78,0.05h-18.73l-0.05-31.49V159.09z"/>
	<path class="st0" d="M500.14,190.32c-0.07,0.35-0.11,0.56-0.11,0.63v0.42c-0.11,5.8-1.44,11.03-4.01,15.67h0.05
		c-3.59,5.49-8.59,9.71-15.01,12.66c-6.42,2.95-12.74,4.43-18.96,4.43s-11.39-0.61-15.48-1.82c-4.1-1.21-7.89-2.98-11.37-5.3
		s-6.07-4.56-7.75-6.7c-4.01-5.06-6.01-12.22-6.01-21.47c0-0.32,0.05-0.58,0.16-0.79v-0.84c-0.11-0.14-0.16-0.28-0.16-0.42l0.1-0.58
		h-0.05c0.67-6.15,1.97-10.2,3.9-12.13c0-0.39,0.25-0.82,0.74-1.32v0.05l0.79-1.27c4.15-5.31,8.9-8.95,14.24-10.92l1.85-0.69
		c2.32-1.13,5.57-1.97,9.76-2.53l1.69-0.16c0.25-0.04,0.75-0.07,1.5-0.11c0.76-0.04,1.29-0.11,1.61-0.21l2.27,0.05
		c0.11-0.03,0.23-0.05,0.37-0.05c0.14,0,0.3,0.02,0.48,0.05l-0.05-0.05c0.21,0.11,0.53,0.16,0.95,0.16
		c0.14-0.14,0.38-0.21,0.74-0.21c7.63,0,14.12,1.57,19.46,4.69l1.06,0.47C494.39,167.56,500.14,176.99,500.14,190.32z
		 M467.32,190.63c-0.14-7-1.14-11.73-3.01-14.19c-0.77-1.02-1.71-1.53-2.82-1.53c-1.11,0-2.09,0.64-2.93,1.93s-1.52,3.3-2.03,6.04
		s-0.76,5.18-0.76,7.31c0,2.13,0.1,3.96,0.29,5.49c0.19,1.53,0.48,3.15,0.87,4.85c0.39,1.71,0.99,3.13,1.79,4.27
		c0.81,1.14,1.72,1.71,2.74,1.71C465.37,206.51,467.32,201.22,467.32,190.63z"/>
</g>
</svg>
